# xmcd
#
# Track frame offsets: 
#        150
#        20635
#        40042
#        72835
#        95292
#        114570
#        128700
#        139800
#        161410
#        182312
#        197652
#
# Disc length: 2900 seconds
#
# Revision: 4
# Processed by: cddbd v1.5.2PL0 Copyright (c) Steve Scherf et al.
# Submitted via: ExactAudioCopyFreeDBPlugin 1.0
#
DISCID=8a0b520b
DTITLE=Giorgia - One More Go Round - Live in Rome Vol. II
DYEAR=1996
DGENRE=Pop-Soul
TTITLE0=One More Go Round
TTITLE1=Them Changes
TTITLE2=Calling You
TTITLE3=Record Company Blues
TTITLE4=You Got What It Takes
TTITLE5=Here, There And Everywhere
TTITLE6=Lately
TTITLE7=The Long And Winding Road
TTITLE8=Something Tells Me
TTITLE9=F.A.N. Blues
TTITLE10=Dr. Feelgood
EXTD=
EXTT0=
EXTT1=
EXTT2=
EXTT3=
EXTT4=
EXTT5=
EXTT6=
EXTT7=
EXTT8=
EXTT9=
EXTT10=
PLAYORDER=
